<?xml version="1.0" encoding="utf-8"?>
<!-- Generator: Adobe Illustrator 26.0.0, SVG Export Plug-In . SVG Version: 6.00 Build 0)  -->
<svg version="1.1" id="Capa_1" xmlns="http://www.w3.org/2000/svg" xmlns:xlink="http://www.w3.org/1999/xlink" x="0px" y="0px"
	 viewBox="0 0 16 16" style="enable-background:new 0 0 16 16;" xml:space="preserve">
<style type="text/css">
	.st0{fill:#FFFFFF;}
	.st1{fill:#4169E1;}
</style>
<rect x="3.9" y="2.6" class="st0" width="8.5" height="9.7"/>
<g>
	<path class="st1" d="M0,16V0h16v16 M7.9,5.2C7.9,5.2,7.9,5.2,7.9,5.2C7.9,5.2,7.9,5.2,7.9,5.2c-0.4,0.2-0.7,0.3-1,0.5
		C6.1,6,5.2,6.4,4.4,6.7c0,0-0.1,0-0.1,0.1c0.1,0.4,0.1,0.8,0.2,1.3c0,0.1,0,0.1,0.1,0.1c1.7,0,3.4,0,5.1,0c0.1,0,0.1,0,0.1,0.1
		c0,0.3-0.1,0.5-0.1,0.8c0,0.4-0.1,0.7-0.1,1.1c0,0.1,0,0.1-0.1,0.1C9,10.4,8.5,10.5,8,10.6c0,0-0.1,0-0.1,0c-0.5-0.1-1-0.3-1.5-0.4
		c0,0-0.1,0-0.1-0.1c0-0.1,0-0.2,0-0.2c0-0.3-0.1-0.5-0.1-0.8c0,0,0-0.1-0.1-0.1C5.6,9,5.1,9,4.7,9C4.6,9,4.6,9,4.6,9.1
		c0.1,0.7,0.1,1.4,0.2,2.1c0,0.2,0,0.2,0.2,0.3c0.8,0.2,1.5,0.4,2.3,0.6c0.2,0.1,0.4,0.1,0.6,0.2c0.1,0,0.1,0,0.2,0
		c1-0.3,2-0.6,3-0.9c0,0,0.1,0,0.1-0.1c0-0.3,0.1-0.6,0.1-0.9c0-0.5,0.1-1,0.1-1.5c0.1-0.7,0.1-1.5,0.2-2.2c0-0.1,0-0.1-0.1-0.1
		c-1,0-2,0-3,0c0,0-0.1,0-0.1,0c0,0,0,0,0,0c1.1-0.5,2.3-0.9,3.4-1.4c0.1,0,0.1-0.1,0.1-0.1c0-0.4,0-0.8,0-1.1
		c0-0.1-0.1-0.3-0.3-0.3c-2.5,0-4.9,0-7.4,0c-0.1,0-0.1,0-0.1,0.1c0.1,0.4,0.1,0.9,0.2,1.3c0,0.1,0,0.1,0.1,0.1c1,0,2,0,3,0
		C7.6,5.2,7.7,5.2,7.9,5.2z"/>
</g>
</svg>
