<?xml version="1.0" encoding="utf-8"?>
<!-- Generator: Adobe Illustrator 26.0.0, SVG Export Plug-In . SVG Version: 6.00 Build 0)  -->
<svg version="1.1" id="Capa_1" xmlns="http://www.w3.org/2000/svg" xmlns:xlink="http://www.w3.org/1999/xlink" x="0px" y="0px"
	 viewBox="0 0 800 450" style="enable-background:new 0 0 800 450;" xml:space="preserve">
<style type="text/css">
	.st0{fill:#4169E1;}
	.st1{fill:#FFFFFF;}
</style>
<path class="st0" d="M800,450H0V0h800V450z"/>
<rect x="293.7" y="102.1" class="st1" width="216" height="247.2"/>
<g>
	<path class="st0" d="M399.2,414.8c-0.5,0-0.9-0.1-1.4-0.3c-4-1.5-8.2-2.4-12.2-3.6c-22.1-6.2-44.2-12.4-66.3-18.6
		c-15.7-4.4-31.5-8.8-47.2-13.1c-1.6-0.4-2.2-1.1-2.4-2.8c-1.3-17.1-2.8-34.1-4.2-51.2c-1.9-23.2-3.9-46.4-5.8-69.5
		c-1.5-18.2-2.9-36.4-4.4-54.6c-1.9-23.2-3.9-46.3-5.8-69.5c-1.2-14.8-2.4-29.6-3.6-44.5c-0.6-7.4-1.2-14.9-1.9-22.3
		c-0.2-1.8,0.1-2.4,2.1-2.4c101.6,0.1,203.2,0.1,304.8,0c1.9,0,2.2,0.6,2.1,2.3c-0.9,10.1-1.8,20.2-2.7,30.3
		c-0.9,10.5-1.8,21.1-2.8,31.6c-1.2,13.8-2.4,27.5-3.7,41.3c-1,11.9-2.1,23.9-3.1,35.8c-1.5,17.2-3,34.4-4.5,51.6
		c-1.1,12.3-2.1,24.6-3.2,36.9c-1.2,13.5-2.4,27.1-3.6,40.6c-0.9,10.5-1.8,20.9-2.7,31.4c-0.4,4.3-0.8,8.6-1.1,12.8
		c-0.1,1.2-0.5,1.7-1.7,2c-12.1,3.4-24.2,7-36.4,10.4c-21,6-42,12.1-63,18.1c-7.9,2.3-15.8,4.6-23.8,6.9c-0.1,0-0.1,0-0.2,0.1
		C400.2,414.7,399.7,414.8,399.2,414.8L399.2,414.8z M396.3,167.9c0,0.1,0.1,0.2,0.1,0.3c-0.3,0.1-0.6,0.3-0.9,0.4
		c-8.5,3.7-17,7.4-25.6,11.1c-20.7,9-41.5,18-62.2,27c-1.1,0.5-1.7,0.9-1.5,2.3c1.6,10.7,3.1,21.5,4.6,32.2c0.3,2,1,2.6,3,2.6
		c43.2-0.1,86.4-0.1,129.5-0.1c2.7,0,2.6,0,2.3,2.7c-0.7,6.4-1.3,12.9-2,19.3c-0.9,9.2-1.9,18.5-2.8,27.8c-0.1,1.5-0.6,2.1-2.2,2.4
		c-13.8,2.5-27.5,5.2-41.3,7.8c-1.1,0.2-2.2,0.4-3.3,0.1c-12.8-3.3-25.5-6.5-38.3-9.7c-1-0.2-1.4-0.6-1.5-1.6
		c-0.2-2.1-0.5-4.2-0.8-6.3c-0.8-6.6-1.5-13.2-2.3-19.7c-0.1-1.1-0.2-2.1-1.9-2.1c-11.6,0.1-23.1,0.1-34.7,0c-1.3,0-1.7,0.3-1.6,1.7
		c1.6,17.9,3.1,35.8,4.6,53.7c0.4,5,0.4,5.1,5.4,6.5c19.3,5.4,38.7,10.7,58,16.1c5.1,1.4,10.2,2.8,15.3,4.3c1.3,0.4,2.5,1,4,0.5
		c25.1-7.9,50.3-15.7,75.4-23.5c1-0.3,1.3-0.8,1.4-1.8c0.6-7.6,1.4-15.3,2-22.9c1.1-12.3,2.1-24.6,3.1-36.8
		c1.6-18.5,3.2-36.9,4.9-55.4c0.2-2.1-0.4-2.6-2.4-2.6c-25.8,0.1-51.5,0.1-77.2,0.1c-0.7,0-1.4,0-2.1,0c0.3-0.6,0.6-0.7,0.9-0.8
		c28.7-11.8,57.5-23.6,86.2-35.3c1.6-0.6,1.9-1.4,1.9-3c0-9.7-0.1-19.4,0-29.1c0-3.5-2.8-6.4-6.4-6.4c-62.3,0.1-124.6,0.1-186.8,0
		c-1.9,0-2.2,0.5-2,2.3c1.6,11.1,3.1,22.2,4.5,33.3c0.2,1.9,0.8,2.6,2.8,2.6c25.5-0.1,51.1-0.1,76.6-0.1
		C387.7,167.9,392,167.9,396.3,167.9z"/>
</g>
</svg>
