<svg xmlns="http://www.w3.org/2000/svg" viewBox="0 0 199.82 199.85"><defs><style>.cls-1{fill:#4169e1;}</style></defs><g id="Capa_2" data-name="Capa 2"><g id="Capa_1-2" data-name="Capa 1"><path class="cls-1" d="M199.82,100c0,55.81-44.41,99.89-100.59,99.87C44.2,199.84,0,155.16,0,99.62,0,43.77,44.59,0,101.34,0,155.54,0,199.83,45,199.82,100Zm-66.86.26C133,81.1,119.15,67,100.25,66.88,81.14,66.8,66.92,80.75,66.86,99.61,66.8,118.78,80.67,132.91,99.6,133,118.74,133.05,132.89,119.16,133,100.24Z"/><path class="cls-1" d="M100.07,130C83,130,69.93,117.12,69.86,100.11S82.72,70,99.72,69.9s30.15,12.83,30.22,29.85S117.1,129.9,100.07,130Zm10.8-30.28a11,11,0,1,0-11.19,11A11,11,0,0,0,110.87,99.67Z"/></g></g></svg>